<svg width="18" height="16" viewBox="0 0 18 16" fill="none" xmlns="http://www.w3.org/2000/svg">
<path fill-rule="evenodd" clip-rule="evenodd" d="M7.37615 1.8125C8.09783 0.562499 9.90205 0.562501 10.6237 1.8125L17.1189 13.0625C17.8406 14.3125 16.9385 15.875 15.4951 15.875H2.50475C1.06137 15.875 0.159265 14.3125 0.880953 13.0625L7.37615 1.8125ZM8.99994 4C9.51771 4 9.93744 4.41973 9.93744 4.9375V8.6875C9.93744 9.20527 9.51771 9.625 8.99994 9.625C8.48217 9.625 8.06244 9.20527 8.06244 8.6875V4.9375C8.06244 4.41973 8.48217 4 8.99994 4ZM8.99994 14C9.6903 14 10.2499 13.4404 10.2499 12.75C10.2499 12.0596 9.6903 11.5 8.99994 11.5C8.30959 11.5 7.74994 12.0596 7.74994 12.75C7.74994 13.4404 8.30959 14 8.99994 14Z" fill="#2563EB" style="fill:#2563EB;fill:color(display-p3 0.1451 0.3882 0.9216);fill-opacity:1;"/>
</svg>
